<svg width="300" height="200" viewBox="0 0 300 200" fill="none" xmlns="http://www.w3.org/2000/svg">
<mask id="path-1-outside-1_245_88" maskUnits="userSpaceOnUse" x="153" y="43" width="125" height="117" fill="black">
<rect fill="white" x="153" y="43" width="125" height="117"/>
<path d="M175.704 43.448H252.12V57.656H175.704V43.448ZM168.28 43.448H182.872V88.12C182.872 93.496 182.659 99.2987 182.232 105.528C181.891 111.757 181.165 118.072 180.056 124.472C178.947 130.872 177.283 137.059 175.064 143.032C172.931 148.92 170.072 154.211 166.488 158.904C165.72 158.051 164.568 157.069 163.032 155.96C161.496 154.851 159.917 153.784 158.296 152.76C156.675 151.821 155.267 151.096 154.072 150.584C157.315 146.232 159.875 141.453 161.752 136.248C163.629 131.043 165.037 125.667 165.976 120.12C166.915 114.573 167.512 109.069 167.768 103.608C168.109 98.1467 168.28 92.984 168.28 88.12V43.448ZM245.848 43.448H261.08C260.995 51.8107 260.909 60.0453 260.824 68.152C260.739 76.2587 260.739 84.024 260.824 91.448C260.909 98.7867 261.037 105.528 261.208 111.672C261.464 117.816 261.805 123.149 262.232 127.672C262.659 132.109 263.213 135.608 263.896 138.168C264.579 140.643 265.432 141.88 266.456 141.88C267.053 141.88 267.523 140.131 267.864 136.632C268.291 133.133 268.547 128.824 268.632 123.704C269.827 125.837 271.192 128.056 272.728 130.36C274.349 132.579 275.843 134.413 277.208 135.864C276.781 140.984 276.099 145.208 275.16 148.536C274.307 151.949 273.069 154.467 271.448 156.088C269.827 157.709 267.651 158.52 264.92 158.52C260.909 158.52 257.667 156.515 255.192 152.504C252.717 148.493 250.797 142.861 249.432 135.608C248.152 128.355 247.256 119.907 246.744 110.264C246.317 100.621 246.061 90.1253 245.976 78.776C245.976 67.4267 245.933 55.6507 245.848 43.448ZM207.064 73.528H220.376V140.728H207.064V73.528ZM198.872 95.8V109.752H228.824V95.8H198.872ZM187.096 84.024H241.24V121.4H187.096V84.024ZM234.2 59.576L244.312 70.584C239.021 71.9493 233.176 73.1013 226.776 74.04C220.376 74.9787 213.848 75.7467 207.192 76.344C200.536 76.856 194.093 77.24 187.864 77.496C187.608 75.8747 187.096 73.9547 186.328 71.736C185.56 69.432 184.835 67.5547 184.152 66.104C188.589 65.7627 193.112 65.4213 197.72 65.08C202.328 64.6533 206.851 64.184 211.288 63.672C215.725 63.16 219.864 62.5627 223.704 61.88C227.629 61.1973 231.128 60.4293 234.2 59.576ZM181.336 136.248C186.285 135.992 191.875 135.693 198.104 135.352C204.419 134.925 211.075 134.499 218.072 134.072C225.155 133.645 232.195 133.176 239.192 132.664V145.336C232.451 145.933 225.709 146.488 218.968 147C212.227 147.512 205.699 148.024 199.384 148.536C193.155 149.048 187.48 149.517 182.36 149.944L181.336 136.248ZM225.624 125.24L237.272 121.656C239.064 124.643 240.771 127.843 242.392 131.256C244.013 134.669 245.421 138.04 246.616 141.368C247.896 144.611 248.792 147.555 249.304 150.2L236.76 154.424C236.333 151.779 235.523 148.792 234.328 145.464C233.219 142.136 231.896 138.723 230.36 135.224C228.909 131.725 227.331 128.397 225.624 125.24Z"/>
</mask>
<path d="M175.704 43.448H252.12V57.656H175.704V43.448ZM168.28 43.448H182.872V88.12C182.872 93.496 182.659 99.2987 182.232 105.528C181.891 111.757 181.165 118.072 180.056 124.472C178.947 130.872 177.283 137.059 175.064 143.032C172.931 148.92 170.072 154.211 166.488 158.904C165.72 158.051 164.568 157.069 163.032 155.96C161.496 154.851 159.917 153.784 158.296 152.76C156.675 151.821 155.267 151.096 154.072 150.584C157.315 146.232 159.875 141.453 161.752 136.248C163.629 131.043 165.037 125.667 165.976 120.12C166.915 114.573 167.512 109.069 167.768 103.608C168.109 98.1467 168.28 92.984 168.28 88.12V43.448ZM245.848 43.448H261.08C260.995 51.8107 260.909 60.0453 260.824 68.152C260.739 76.2587 260.739 84.024 260.824 91.448C260.909 98.7867 261.037 105.528 261.208 111.672C261.464 117.816 261.805 123.149 262.232 127.672C262.659 132.109 263.213 135.608 263.896 138.168C264.579 140.643 265.432 141.88 266.456 141.88C267.053 141.88 267.523 140.131 267.864 136.632C268.291 133.133 268.547 128.824 268.632 123.704C269.827 125.837 271.192 128.056 272.728 130.36C274.349 132.579 275.843 134.413 277.208 135.864C276.781 140.984 276.099 145.208 275.16 148.536C274.307 151.949 273.069 154.467 271.448 156.088C269.827 157.709 267.651 158.52 264.92 158.52C260.909 158.52 257.667 156.515 255.192 152.504C252.717 148.493 250.797 142.861 249.432 135.608C248.152 128.355 247.256 119.907 246.744 110.264C246.317 100.621 246.061 90.1253 245.976 78.776C245.976 67.4267 245.933 55.6507 245.848 43.448ZM207.064 73.528H220.376V140.728H207.064V73.528ZM198.872 95.8V109.752H228.824V95.8H198.872ZM187.096 84.024H241.24V121.4H187.096V84.024ZM234.2 59.576L244.312 70.584C239.021 71.9493 233.176 73.1013 226.776 74.04C220.376 74.9787 213.848 75.7467 207.192 76.344C200.536 76.856 194.093 77.24 187.864 77.496C187.608 75.8747 187.096 73.9547 186.328 71.736C185.56 69.432 184.835 67.5547 184.152 66.104C188.589 65.7627 193.112 65.4213 197.72 65.08C202.328 64.6533 206.851 64.184 211.288 63.672C215.725 63.16 219.864 62.5627 223.704 61.88C227.629 61.1973 231.128 60.4293 234.2 59.576ZM181.336 136.248C186.285 135.992 191.875 135.693 198.104 135.352C204.419 134.925 211.075 134.499 218.072 134.072C225.155 133.645 232.195 133.176 239.192 132.664V145.336C232.451 145.933 225.709 146.488 218.968 147C212.227 147.512 205.699 148.024 199.384 148.536C193.155 149.048 187.48 149.517 182.36 149.944L181.336 136.248ZM225.624 125.24L237.272 121.656C239.064 124.643 240.771 127.843 242.392 131.256C244.013 134.669 245.421 138.04 246.616 141.368C247.896 144.611 248.792 147.555 249.304 150.2L236.76 154.424C236.333 151.779 235.523 148.792 234.328 145.464C233.219 142.136 231.896 138.723 230.36 135.224C228.909 131.725 227.331 128.397 225.624 125.24Z" fill="#FEF5CD"/>
<path d="M175.704 43.448V43.148H175.404V43.448H175.704ZM252.12 43.448H252.42V43.148H252.12V43.448ZM252.12 57.656V57.956H252.42V57.656H252.12ZM175.704 57.656H175.404V57.956H175.704V57.656ZM168.28 43.448V43.148H167.98V43.448H168.28ZM182.872 43.448H183.172V43.148H182.872V43.448ZM182.232 105.528L181.933 105.507L181.932 105.512L182.232 105.528ZM180.056 124.472L179.76 124.421V124.421L180.056 124.472ZM175.064 143.032L174.783 142.928L174.782 142.93L175.064 143.032ZM166.488 158.904L166.265 159.105L166.507 159.374L166.726 159.086L166.488 158.904ZM163.032 155.96L163.208 155.717V155.717L163.032 155.96ZM158.296 152.76L158.456 152.506L158.446 152.5L158.296 152.76ZM154.072 150.584L153.831 150.405L153.604 150.71L153.954 150.86L154.072 150.584ZM161.752 136.248L162.034 136.35V136.35L161.752 136.248ZM167.768 103.608L167.469 103.589L167.468 103.594L167.768 103.608ZM245.848 43.448V43.148H245.546L245.548 43.4501L245.848 43.448ZM261.08 43.448L261.38 43.4511L261.383 43.148H261.08V43.448ZM260.824 68.152L260.524 68.1488L260.824 68.152ZM260.824 91.448L260.524 91.4514V91.4515L260.824 91.448ZM261.208 111.672L260.908 111.68L260.908 111.684L261.208 111.672ZM262.232 127.672L261.933 127.7L261.933 127.701L262.232 127.672ZM263.896 138.168L263.606 138.245L263.607 138.248L263.896 138.168ZM267.864 136.632L267.566 136.596L267.565 136.603L267.864 136.632ZM268.632 123.704L268.894 123.557L268.351 122.587L268.332 123.699L268.632 123.704ZM272.728 130.36L272.478 130.527L272.486 130.537L272.728 130.36ZM277.208 135.864L277.507 135.889L277.518 135.756L277.426 135.658L277.208 135.864ZM275.16 148.536L274.871 148.455L274.869 148.463L275.16 148.536ZM271.448 156.088L271.236 155.876L271.448 156.088ZM255.192 152.504L254.937 152.662V152.662L255.192 152.504ZM249.432 135.608L249.137 135.66L249.137 135.663L249.432 135.608ZM246.744 110.264L246.444 110.277L246.444 110.28L246.744 110.264ZM245.976 78.776H245.676L245.676 78.7782L245.976 78.776ZM207.064 73.528V73.228H206.764V73.528H207.064ZM220.376 73.528H220.676V73.228H220.376V73.528ZM220.376 140.728V141.028H220.676V140.728H220.376ZM207.064 140.728H206.764V141.028H207.064V140.728ZM198.872 95.8V95.5H198.572V95.8H198.872ZM198.872 109.752H198.572V110.052H198.872V109.752ZM228.824 109.752V110.052H229.124V109.752H228.824ZM228.824 95.8H229.124V95.5H228.824V95.8ZM187.096 84.024V83.724H186.796V84.024H187.096ZM241.24 84.024H241.54V83.724H241.24V84.024ZM241.24 121.4V121.7H241.54V121.4H241.24ZM187.096 121.4H186.796V121.7H187.096V121.4ZM234.2 59.576L234.421 59.373L234.297 59.2378L234.12 59.2869L234.2 59.576ZM244.312 70.584L244.387 70.8745L244.871 70.7495L244.533 70.3811L244.312 70.584ZM226.776 74.04L226.732 73.7432V73.7432L226.776 74.04ZM207.192 76.344L207.215 76.6431L207.219 76.6428L207.192 76.344ZM187.864 77.496L187.568 77.5428L187.609 77.8067L187.876 77.7957L187.864 77.496ZM186.328 71.736L186.043 71.8309L186.045 71.8341L186.328 71.736ZM184.152 66.104L184.129 65.8049L183.695 65.8382L183.881 66.2317L184.152 66.104ZM197.72 65.08L197.742 65.3792L197.748 65.3787L197.72 65.08ZM223.704 61.88L223.653 61.5844L223.651 61.5846L223.704 61.88ZM181.336 136.248L181.321 135.948L181.014 135.964L181.037 136.27L181.336 136.248ZM198.104 135.352L198.12 135.652L198.124 135.651L198.104 135.352ZM218.072 134.072L218.054 133.773L218.054 133.773L218.072 134.072ZM239.192 132.664H239.492V132.341L239.17 132.365L239.192 132.664ZM239.192 145.336L239.218 145.635L239.492 145.611V145.336H239.192ZM199.384 148.536L199.36 148.237L199.359 148.237L199.384 148.536ZM182.36 149.944L182.061 149.966L182.083 150.268L182.385 150.243L182.36 149.944ZM225.624 125.24L225.536 124.953L225.186 125.061L225.36 125.383L225.624 125.24ZM237.272 121.656L237.529 121.502L237.408 121.3L237.184 121.369L237.272 121.656ZM246.616 141.368L246.334 141.469L246.337 141.478L246.616 141.368ZM249.304 150.2L249.4 150.484L249.648 150.401L249.599 150.143L249.304 150.2ZM236.76 154.424L236.464 154.472L236.52 154.821L236.856 154.708L236.76 154.424ZM234.328 145.464L234.043 145.559L234.046 145.565L234.328 145.464ZM230.36 135.224L230.083 135.339L230.085 135.345L230.36 135.224ZM175.704 43.448V43.748H252.12V43.448V43.148H175.704V43.448ZM252.12 43.448H251.82V57.656H252.12H252.42V43.448H252.12ZM252.12 57.656V57.356H175.704V57.656V57.956H252.12V57.656ZM175.704 57.656H176.004V43.448H175.704H175.404V57.656H175.704ZM168.28 43.448V43.748H182.872V43.448V43.148H168.28V43.448ZM182.872 43.448H182.572V88.12H182.872H183.172V43.448H182.872ZM182.872 88.12H182.572C182.572 93.4882 182.359 99.2839 181.933 105.507L182.232 105.528L182.531 105.549C182.958 99.3134 183.172 93.5038 183.172 88.12H182.872ZM182.232 105.528L181.932 105.512C181.592 111.729 180.868 118.032 179.76 124.421L180.056 124.472L180.352 124.523C181.463 118.112 182.19 111.786 182.532 105.544L182.232 105.528ZM180.056 124.472L179.76 124.421C178.654 130.803 176.995 136.972 174.783 142.928L175.064 143.032L175.345 143.136C177.57 137.146 179.239 130.941 180.352 124.523L180.056 124.472ZM175.064 143.032L174.782 142.93C172.658 148.791 169.814 154.054 166.25 158.722L166.488 158.904L166.726 159.086C170.33 154.367 173.203 149.049 175.346 143.134L175.064 143.032ZM166.488 158.904L166.711 158.703C165.923 157.827 164.751 156.832 163.208 155.717L163.032 155.96L162.856 156.203C164.385 157.307 165.517 158.274 166.265 159.105L166.488 158.904ZM163.032 155.96L163.208 155.717C161.667 154.604 160.083 153.534 158.456 152.506L158.296 152.76L158.136 153.014C159.752 154.034 161.325 155.098 162.856 156.203L163.032 155.96ZM158.296 152.76L158.446 152.5C156.819 151.558 155.4 150.827 154.19 150.308L154.072 150.584L153.954 150.86C155.134 151.365 156.531 152.085 158.146 153.02L158.296 152.76ZM154.072 150.584L154.313 150.763C157.573 146.387 160.147 141.582 162.034 136.35L161.752 136.248L161.47 136.146C159.602 141.324 157.056 146.077 153.831 150.405L154.072 150.584ZM161.752 136.248L162.034 136.35C163.918 131.127 165.33 125.734 166.272 120.17L165.976 120.12L165.68 120.07C164.744 125.599 163.341 130.958 161.47 136.146L161.752 136.248ZM165.976 120.12L166.272 120.17C167.212 114.612 167.811 109.096 168.068 103.622L167.768 103.608L167.468 103.594C167.213 109.043 166.617 114.535 165.68 120.07L165.976 120.12ZM167.768 103.608L168.067 103.627C168.409 98.1599 168.58 92.991 168.58 88.12H168.28H167.98C167.98 92.977 167.81 98.1334 167.469 103.589L167.768 103.608ZM168.28 88.12H168.58V43.448H168.28H167.98V88.12H168.28ZM245.848 43.448V43.748H261.08V43.448V43.148H245.848V43.448ZM261.08 43.448L260.78 43.4449C260.695 51.8076 260.609 60.0422 260.524 68.1488L260.824 68.152L261.124 68.1552C261.209 60.0485 261.295 51.8138 261.38 43.4511L261.08 43.448ZM260.824 68.152L260.524 68.1488C260.439 76.2575 260.439 84.0251 260.524 91.4514L260.824 91.448L261.124 91.4445C261.039 84.0229 261.039 76.2598 261.124 68.1552L260.824 68.152ZM260.824 91.448L260.524 91.4515C260.609 98.7915 260.737 105.534 260.908 111.68L261.208 111.672L261.508 111.664C261.337 105.522 261.209 98.7819 261.124 91.4445L260.824 91.448ZM261.208 111.672L260.908 111.684C261.164 117.832 261.506 123.171 261.933 127.7L262.232 127.672L262.531 127.644C262.105 123.128 261.764 117.8 261.508 111.66L261.208 111.672ZM262.232 127.672L261.933 127.701C262.361 132.145 262.917 135.662 263.606 138.245L263.896 138.168L264.186 138.091C263.509 135.554 262.957 132.074 262.531 127.643L262.232 127.672ZM263.896 138.168L263.607 138.248C263.952 139.498 264.347 140.463 264.801 141.122C265.256 141.782 265.805 142.18 266.456 142.18V141.88V141.58C266.083 141.58 265.693 141.359 265.295 140.782C264.896 140.203 264.523 139.313 264.185 138.088L263.896 138.168ZM266.456 141.88V142.18C266.768 142.18 266.988 141.951 267.136 141.708C267.292 141.453 267.426 141.093 267.546 140.646C267.787 139.747 267.992 138.415 268.163 136.661L267.864 136.632L267.565 136.603C267.395 138.348 267.194 139.64 266.966 140.49C266.852 140.918 266.735 141.213 266.624 141.396C266.569 141.486 266.523 141.536 266.49 141.561C266.475 141.572 266.465 141.577 266.461 141.579C266.459 141.58 266.457 141.58 266.457 141.58C266.456 141.58 266.456 141.58 266.456 141.58V141.88ZM267.864 136.632L268.162 136.668C268.59 133.156 268.847 128.835 268.932 123.709L268.632 123.704L268.332 123.699C268.247 128.813 267.991 133.111 267.566 136.596L267.864 136.632ZM268.632 123.704L268.37 123.851C269.569 125.991 270.939 128.217 272.478 130.526L272.728 130.36L272.978 130.194C271.445 127.895 270.084 125.683 268.894 123.557L268.632 123.704ZM272.728 130.36L272.486 130.537C274.112 132.762 275.613 134.607 276.99 136.07L277.208 135.864L277.426 135.658C276.072 134.219 274.587 132.395 272.97 130.183L272.728 130.36ZM277.208 135.864L276.909 135.839C276.483 140.948 275.803 145.152 274.871 148.455L275.16 148.536L275.449 148.617C276.394 145.264 277.079 141.02 277.507 135.889L277.208 135.864ZM275.16 148.536L274.869 148.463C274.022 151.85 272.803 154.308 271.236 155.876L271.448 156.088L271.66 156.3C273.335 154.625 274.591 152.049 275.451 148.609L275.16 148.536ZM271.448 156.088L271.236 155.876C269.681 157.43 267.587 158.22 264.92 158.22V158.52V158.82C267.714 158.82 269.972 157.988 271.66 156.3L271.448 156.088ZM264.92 158.52V158.22C261.033 158.22 257.879 156.287 255.447 152.346L255.192 152.504L254.937 152.662C257.455 156.743 260.786 158.82 264.92 158.82V158.52ZM255.192 152.504L255.447 152.346C253 148.38 251.089 142.788 249.727 135.553L249.432 135.608L249.137 135.663C250.506 142.935 252.435 148.607 254.937 152.662L255.192 152.504ZM249.432 135.608L249.727 135.556C248.45 128.318 247.555 119.882 247.044 110.248L246.744 110.264L246.444 110.28C246.957 119.931 247.854 128.392 249.137 135.66L249.432 135.608ZM246.744 110.264L247.044 110.251C246.617 100.612 246.361 90.12 246.276 78.7737L245.976 78.776L245.676 78.7782C245.761 90.1306 246.017 100.63 246.444 110.277L246.744 110.264ZM245.976 78.776H246.276C246.276 67.4259 246.233 55.6492 246.148 43.4459L245.848 43.448L245.548 43.4501C245.633 55.6521 245.676 67.4274 245.676 78.776H245.976ZM207.064 73.528V73.828H220.376V73.528V73.228H207.064V73.528ZM220.376 73.528H220.076V140.728H220.376H220.676V73.528H220.376ZM220.376 140.728V140.428H207.064V140.728V141.028H220.376V140.728ZM207.064 140.728H207.364V73.528H207.064H206.764V140.728H207.064ZM198.872 95.8H198.572V109.752H198.872H199.172V95.8H198.872ZM198.872 109.752V110.052H228.824V109.752V109.452H198.872V109.752ZM228.824 109.752H229.124V95.8H228.824H228.524V109.752H228.824ZM228.824 95.8V95.5H198.872V95.8V96.1H228.824V95.8ZM187.096 84.024V84.324H241.24V84.024V83.724H187.096V84.024ZM241.24 84.024H240.94V121.4H241.24H241.54V84.024H241.24ZM241.24 121.4V121.1H187.096V121.4V121.7H241.24V121.4ZM187.096 121.4H187.396V84.024H187.096H186.796V121.4H187.096ZM234.2 59.576L233.979 59.7789L244.091 70.7869L244.312 70.584L244.533 70.3811L234.421 59.373L234.2 59.576ZM244.312 70.584L244.237 70.2935C238.958 71.6557 233.124 72.8058 226.732 73.7432L226.776 74.04L226.82 74.3368C233.228 73.3969 239.084 72.2429 244.387 70.8745L244.312 70.584ZM226.776 74.04L226.732 73.7432C220.338 74.681 213.816 75.4483 207.165 76.0452L207.192 76.344L207.219 76.6428C213.88 76.045 220.414 75.2763 226.82 74.3368L226.776 74.04ZM207.192 76.344L207.169 76.0449C200.516 76.5566 194.077 76.9404 187.852 77.1962L187.864 77.496L187.876 77.7957C194.109 77.5396 200.556 77.1554 207.215 76.6431L207.192 76.344ZM187.864 77.496L188.16 77.4492C187.901 75.8047 187.383 73.8668 186.611 71.6379L186.328 71.736L186.045 71.8341C186.809 74.0426 187.315 75.9446 187.568 77.5428L187.864 77.496ZM186.328 71.736L186.613 71.6411C185.843 69.331 185.113 67.4416 184.423 65.9763L184.152 66.104L183.881 66.2317C184.556 67.6678 185.277 69.533 186.043 71.8309L186.328 71.736ZM184.152 66.104L184.175 66.4031C188.612 66.0618 193.134 65.7205 197.742 65.3792L197.72 65.08L197.698 64.7808C193.09 65.1222 188.567 65.4635 184.129 65.8049L184.152 66.104ZM197.72 65.08L197.748 65.3787C202.358 64.9519 206.883 64.4823 211.322 63.97L211.288 63.672L211.254 63.374C206.819 63.8857 202.298 64.3548 197.692 64.7813L197.72 65.08ZM211.288 63.672L211.322 63.97C215.765 63.4574 219.91 62.8592 223.757 62.1754L223.704 61.88L223.651 61.5846C219.818 62.2661 215.686 62.8626 211.254 63.374L211.288 63.672ZM223.704 61.88L223.755 62.1756C227.688 61.4916 231.197 60.7216 234.28 59.8651L234.2 59.576L234.12 59.2869C231.059 60.1371 227.57 60.9031 223.653 61.5844L223.704 61.88ZM181.336 136.248L181.351 136.548C186.301 136.292 191.891 135.993 198.12 135.652L198.104 135.352L198.088 135.052C191.858 135.394 186.269 135.692 181.321 135.948L181.336 136.248ZM198.104 135.352L198.124 135.651C204.438 135.225 211.094 134.798 218.09 134.371L218.072 134.072L218.054 133.773C211.056 134.199 204.399 134.626 198.084 135.053L198.104 135.352ZM218.072 134.072L218.09 134.371C225.174 133.945 232.215 133.475 239.214 132.963L239.192 132.664L239.17 132.365C232.174 132.877 225.135 133.346 218.054 133.773L218.072 134.072ZM239.192 132.664H238.892V145.336H239.192H239.492V132.664H239.192ZM239.192 145.336L239.166 145.037C232.425 145.634 225.685 146.189 218.945 146.701L218.968 147L218.991 147.299C225.733 146.787 232.476 146.232 239.218 145.635L239.192 145.336ZM218.968 147L218.945 146.701C212.203 147.213 205.675 147.725 199.36 148.237L199.384 148.536L199.408 148.835C205.722 148.323 212.25 147.811 218.991 147.299L218.968 147ZM199.384 148.536L199.359 148.237C193.13 148.749 187.455 149.218 182.335 149.645L182.36 149.944L182.385 150.243C187.505 149.816 193.179 149.347 199.409 148.835L199.384 148.536ZM182.36 149.944L182.659 149.922L181.635 136.226L181.336 136.248L181.037 136.27L182.061 149.966L182.36 149.944ZM225.624 125.24L225.712 125.527L237.36 121.943L237.272 121.656L237.184 121.369L225.536 124.953L225.624 125.24ZM237.272 121.656L237.015 121.81C238.801 124.788 240.504 127.979 242.121 131.385L242.392 131.256L242.663 131.127C241.038 127.706 239.327 124.497 237.529 121.502L237.272 121.656ZM242.392 131.256L242.121 131.385C243.738 134.79 245.143 138.151 246.334 141.469L246.616 141.368L246.898 141.267C245.7 137.929 244.288 134.549 242.663 131.127L242.392 131.256ZM246.616 141.368L246.337 141.478C247.612 144.708 248.502 147.634 249.009 150.257L249.304 150.2L249.599 150.143C249.082 147.475 248.18 144.513 246.895 141.258L246.616 141.368ZM249.304 150.2L249.208 149.916L236.664 154.14L236.76 154.424L236.856 154.708L249.4 150.484L249.304 150.2ZM236.76 154.424L237.056 154.376C236.626 151.708 235.809 148.703 234.61 145.363L234.328 145.464L234.046 145.565C235.236 148.881 236.041 151.849 236.464 154.472L236.76 154.424ZM234.328 145.464L234.613 145.369C233.5 142.032 232.174 138.61 230.635 135.103L230.36 135.224L230.085 135.345C231.618 138.836 232.937 142.24 234.043 145.559L234.328 145.464ZM230.36 135.224L230.637 135.109C229.183 131.601 227.6 128.264 225.888 125.097L225.624 125.24L225.36 125.383C227.062 128.53 228.636 131.849 230.083 135.339L230.36 135.224Z" fill="black" mask="url(#path-1-outside-1_245_88)"/>
<mask id="path-3-outside-2_245_88" maskUnits="userSpaceOnUse" x="20" y="43" width="134" height="116" fill="black">
<rect fill="white" x="20" y="43" width="134" height="116"/>
<path d="M87.6853 45.1706C88.3616 45.1667 89.0378 45.1624 89.7138 45.1576C91.8456 45.1433 93.9771 45.1332 96.1083 45.1273C98.5396 45.1207 100.971 45.1011 103.402 45.0711C105.301 45.0482 107.201 45.0375 109.101 45.0353C110.227 45.0336 111.352 45.0276 112.477 45.0083C118.524 44.9107 123.109 45.6548 128.59 48.3854L129.559 48.8674C131.362 49.7735 133.146 50.709 134.908 51.6923C134.908 53.039 134.434 53.4846 133.587 54.4309C133.308 54.7512 133.029 55.0716 132.751 55.3921L132.315 55.8868C131.648 56.6501 130.994 57.4264 130.341 58.2027L129.962 58.6524C129.16 59.6045 128.365 60.5626 127.577 61.5267L126.972 62.2597C126.58 62.7544 126.205 63.2621 125.847 63.782L125.31 64.5409L124.857 65.2235C123.042 66.657 119.605 66.0541 117.405 66.0403L116.202 66.0364C115.344 66.0337 114.485 66.0302 113.626 66.0259C112.266 66.0196 110.905 66.016 109.545 66.0127C105.678 66.0042 101.811 65.9916 97.9434 65.975C95.8038 65.9652 93.6641 65.9588 91.5244 65.9557C90.175 65.9531 88.8255 65.9476 87.4759 65.9391C86.6331 65.9345 85.79 65.9336 84.9472 65.9336C84.5596 65.9331 84.172 65.931 83.7843 65.9273C80.0322 65.8934 76.9219 66.3553 74.0244 68.8467C71.7503 71.4884 70.507 74.2424 70.5498 77.7554C70.9775 83.1252 74.409 86.1891 78.0249 89.7387C78.6201 90.3259 79.2146 90.9138 79.8086 91.5024C80.1761 91.8665 80.5445 92.2297 80.9138 92.592C81.3344 93.0088 81.7508 93.4298 82.1629 93.855V94.1305C80.6325 94.3675 78.9542 94.6235 77.5383 93.8583C76.329 92.9654 75.3398 91.8474 74.3335 90.7377C74.0253 90.4172 73.7163 90.0976 73.4063 89.779C69.3721 85.569 67.4683 81.4746 67.545 75.649C67.59 74.157 67.7961 72.8929 68.4271 71.5335L68.762 70.7939C70.3309 67.6416 72.5761 65.2047 75.8444 63.8175C78.3891 62.9787 80.8283 62.8874 83.4769 62.9285C83.9027 62.9318 84.3287 62.9348 84.7549 62.9373C85.6653 62.9436 86.5759 62.9517 87.4866 62.9618C88.9289 62.977 90.3712 62.9828 91.8137 62.9866L94.0526 62.9927C97.4061 63.0029 100.759 63.0208 104.112 63.0578C106.381 63.0826 108.65 63.095 110.919 63.0927C112.117 63.0922 113.315 63.0983 114.513 63.1198C115.64 63.1401 116.765 63.1437 117.892 63.1346C118.303 63.1343 118.714 63.1402 119.125 63.1525C121.324 63.2369 121.324 63.2369 123.283 62.3617C124.281 61.3878 125.06 60.283 125.843 59.1328C126.135 58.7604 126.431 58.3915 126.731 58.0261C126.962 57.7295 127.193 57.4325 127.422 57.1349L127.796 56.654C128.153 56.1947 128.509 55.7349 128.865 55.2747L129.482 54.4803C129.918 53.9189 130.353 53.357 130.788 52.7946L130.189 52.5576C129.456 52.2586 128.727 51.9479 128.004 51.6256L127.195 51.2693C126.643 51.0259 126.091 50.7819 125.54 50.5374L124.725 50.1788L123.997 49.857L123.096 49.4877L122.495 49.2149C120.276 48.287 118.225 48.2377 115.85 48.268C115.433 48.2693 115.015 48.2701 114.598 48.2705C113.472 48.2727 112.347 48.2821 111.221 48.2931C110.036 48.3036 108.85 48.3088 107.665 48.3146C105.673 48.3258 103.682 48.3408 101.69 48.3595C99.3997 48.3805 97.1097 48.3934 94.8194 48.4025C92.6032 48.4113 90.3874 48.4265 88.1715 48.4438C87.2347 48.4512 86.2979 48.4565 85.3612 48.4598C76.5914 48.4943 68.0573 49.4199 61.4894 55.8862L60.735 56.6526L60.0578 57.333C54.7459 62.9437 52.8817 70.2075 52.9658 77.7328C53.0688 81.2817 53.9558 84.607 55.5154 87.7924L55.9533 88.6935C56.9807 90.706 58.1716 92.4176 59.6362 94.1305L60.0161 94.6321C61.3342 96.3343 63.1292 97.5603 64.8558 98.8153L65.5865 99.3981C66.7486 100.056 67.5733 100.071 68.8817 100.055L69.5968 100.059C70.3858 100.063 71.1745 100.059 71.9632 100.055C72.5297 100.056 73.0962 100.057 73.6626 100.059C74.8824 100.063 76.1019 100.063 77.3213 100.06C79.2534 100.056 81.1855 100.059 83.1175 100.064C86.8746 100.073 90.6319 100.073 94.3892 100.072C99.1604 100.072 103.932 100.075 108.703 100.086C110.62 100.09 112.536 100.09 114.453 100.087C115.652 100.085 116.85 100.088 118.049 100.09C118.6 100.091 119.152 100.09 119.703 100.088C127.758 100.056 136.633 101.906 142.583 107.823C142.866 108.126 143.146 108.43 143.425 108.736L144.111 109.408C149.273 114.715 152.072 121.621 151.999 129.048C151.856 132.862 151.01 136.397 149.468 139.876L149.24 140.396C148.224 142.676 146.997 144.615 145.348 146.489L144.785 147.174C139.582 153.318 131.914 156.21 124.068 156.903C121.909 157.032 119.745 156.997 117.583 156.993H115.917C114.417 156.992 112.917 156.991 111.417 156.989C109.847 156.987 108.277 156.987 106.706 156.987C103.736 156.986 100.766 156.984 97.7954 156.981C94.4124 156.978 91.0295 156.976 87.6465 156.975C80.6907 156.972 73.7348 156.967 66.7788 156.961C67.8859 154.089 69.9864 151.623 71.7822 149.147C72.8062 147.73 73.7961 146.288 74.7511 144.823C75.5159 143.679 76.3194 142.564 77.1293 141.451C77.6908 140.673 78.1779 139.914 78.5916 139.049L78.0559 139.05C73.7621 139.056 69.4681 139.06 65.1739 139.063C63.0972 139.065 61.0206 139.067 58.9441 139.07C57.1349 139.072 55.3256 139.074 53.5163 139.075C52.5577 139.075 51.5991 139.076 50.6406 139.078C49.5722 139.08 48.5038 139.08 47.4354 139.08L46.4657 139.083L45.5888 139.082L44.8223 139.083C44.252 139.049 44.252 139.049 43.9773 138.773C43.9589 138.355 43.9533 137.935 43.9603 137.516L43.9677 136.826L43.9773 136.293L44.4866 136.292C55.8924 136.274 67.2982 136.25 78.7039 136.219C82.5613 136.21 86.4188 136.202 90.2764 136.197C94.2356 136.191 98.1949 136.182 102.154 136.169C104.597 136.162 107.039 136.158 109.481 136.156C111.157 136.154 112.833 136.15 114.508 136.143C115.474 136.139 116.441 136.136 117.407 136.137C118.456 136.138 119.505 136.133 120.555 136.128L121.473 136.131C124.14 136.107 126.786 135.61 128.865 133.813C130.281 132.095 130.937 130.103 130.873 127.877C130.616 125.828 129.875 124.025 128.332 122.634C126.397 121.285 124.207 120.828 121.889 120.823L120.808 120.818L119.621 120.818L118.36 120.813C117.204 120.81 116.048 120.807 114.892 120.806C113.646 120.803 112.4 120.8 111.153 120.796C108.994 120.79 106.835 120.785 104.676 120.781C101.553 120.774 98.4313 120.767 95.3095 120.759C90.2444 120.746 85.1793 120.734 80.1141 120.722C75.1933 120.712 70.2726 120.7 65.3519 120.688L64.433 120.686L59.8691 120.675C47.2459 120.643 34.6229 120.614 22 120.586V117.83C36.6451 117.794 51.2903 117.769 65.9354 117.754L66.8689 117.753C71.8528 117.747 76.837 117.736 81.8212 117.723C86.9368 117.711 92.0523 117.703 97.1679 117.7C100.323 117.698 103.479 117.692 106.635 117.681C108.8 117.674 110.965 117.671 113.13 117.673C114.379 117.674 115.627 117.673 116.875 117.666C118.02 117.659 119.165 117.658 120.31 117.663C120.722 117.664 121.134 117.662 121.547 117.658C125.08 117.623 128.442 118.316 131.062 120.861C133.229 123.206 134.195 126.117 134.142 129.289C133.914 131.918 132.679 134.553 130.753 136.362C128.624 138.039 126.252 139.095 123.553 139.067C123.195 139.064 122.837 139.061 122.468 139.058L121.883 139.051C121.047 139.042 120.21 139.035 119.373 139.029L118.021 139.017C115.128 138.992 112.235 138.987 109.343 138.981C106.526 138.975 103.711 138.963 100.894 138.931C98.6567 138.905 96.4188 138.894 94.1809 138.898C92.9975 138.9 91.8148 138.896 90.6313 138.874C89.5165 138.854 88.4031 138.852 87.288 138.864C86.8807 138.865 86.4735 138.86 86.0664 138.847C83.8912 138.759 83.8911 138.759 82.0052 139.706C81.0726 140.769 80.386 141.956 79.6905 143.183C79.4124 143.587 79.1276 143.986 78.8361 144.381C77.3099 146.534 75.8189 148.712 74.3637 150.915L73.831 151.718C73.403 152.363 72.9753 153.009 72.5478 153.654C79.3086 153.674 86.0694 153.688 92.8301 153.697C95.9692 153.701 99.1087 153.708 102.249 153.717C104.987 153.725 107.725 153.73 110.463 153.732C111.911 153.733 113.359 153.736 114.807 153.742C116.174 153.747 117.541 153.749 118.907 153.748C119.405 153.748 119.904 153.75 120.402 153.753C124.498 153.778 128.513 153.458 132.367 151.949L133.026 151.697C139.438 149.146 143.971 144.356 146.861 138.161C149.401 132.004 149.358 125.122 146.844 118.968C145.724 116.535 144.305 114.375 142.601 112.318L141.962 111.507C141.245 110.646 140.421 109.957 139.527 109.287L139.049 108.927C133.118 104.509 126.552 103.311 119.303 103.402C118.722 103.405 118.142 103.408 117.561 103.41C116.322 103.415 115.083 103.423 113.844 103.434C111.881 103.45 109.917 103.455 107.954 103.458C102.374 103.469 96.7949 103.488 91.2154 103.531C88.1252 103.555 85.0351 103.566 81.9451 103.565C79.9973 103.565 78.0498 103.579 76.1021 103.603C74.8865 103.615 73.6711 103.614 72.4555 103.608C71.8966 103.608 71.3377 103.614 70.7789 103.625C66.5758 103.71 64.1638 102.688 61.0097 99.9176L60.0276 99.0817C54.0836 93.9087 50.3741 86.2789 49.7464 78.4229C49.2659 70.1447 51.8424 61.9078 57.298 55.6308C65.5269 46.5424 76.0365 45.2337 87.6853 45.1706Z"/>
</mask>
<path d="M87.6853 45.1706C88.3616 45.1667 89.0378 45.1624 89.7138 45.1576C91.8456 45.1433 93.9771 45.1332 96.1083 45.1273C98.5396 45.1207 100.971 45.1011 103.402 45.0711C105.301 45.0482 107.201 45.0375 109.101 45.0353C110.227 45.0336 111.352 45.0276 112.477 45.0083C118.524 44.9107 123.109 45.6548 128.59 48.3854L129.559 48.8674C131.362 49.7735 133.146 50.709 134.908 51.6923C134.908 53.039 134.434 53.4846 133.587 54.4309C133.308 54.7512 133.029 55.0716 132.751 55.3921L132.315 55.8868C131.648 56.6501 130.994 57.4264 130.341 58.2027L129.962 58.6524C129.16 59.6045 128.365 60.5626 127.577 61.5267L126.972 62.2597C126.58 62.7544 126.205 63.2621 125.847 63.782L125.31 64.5409L124.857 65.2235C123.042 66.657 119.605 66.0541 117.405 66.0403L116.202 66.0364C115.344 66.0337 114.485 66.0302 113.626 66.0259C112.266 66.0196 110.905 66.016 109.545 66.0127C105.678 66.0042 101.811 65.9916 97.9434 65.975C95.8038 65.9652 93.6641 65.9588 91.5244 65.9557C90.175 65.9531 88.8255 65.9476 87.4759 65.9391C86.6331 65.9345 85.79 65.9336 84.9472 65.9336C84.5596 65.9331 84.172 65.931 83.7843 65.9273C80.0322 65.8934 76.9219 66.3553 74.0244 68.8467C71.7503 71.4884 70.507 74.2424 70.5498 77.7554C70.9775 83.1252 74.409 86.1891 78.0249 89.7387C78.6201 90.3259 79.2146 90.9138 79.8086 91.5024C80.1761 91.8665 80.5445 92.2297 80.9138 92.592C81.3344 93.0088 81.7508 93.4298 82.1629 93.855V94.1305C80.6325 94.3675 78.9542 94.6235 77.5383 93.8583C76.329 92.9654 75.3398 91.8474 74.3335 90.7377C74.0253 90.4172 73.7163 90.0976 73.4063 89.779C69.3721 85.569 67.4683 81.4746 67.545 75.649C67.59 74.157 67.7961 72.8929 68.4271 71.5335L68.762 70.7939C70.3309 67.6416 72.5761 65.2047 75.8444 63.8175C78.3891 62.9787 80.8283 62.8874 83.4769 62.9285C83.9027 62.9318 84.3287 62.9348 84.7549 62.9373C85.6653 62.9436 86.5759 62.9517 87.4866 62.9618C88.9289 62.977 90.3712 62.9828 91.8137 62.9866L94.0526 62.9927C97.4061 63.0029 100.759 63.0208 104.112 63.0578C106.381 63.0826 108.65 63.095 110.919 63.0927C112.117 63.0922 113.315 63.0983 114.513 63.1198C115.64 63.1401 116.765 63.1437 117.892 63.1346C118.303 63.1343 118.714 63.1402 119.125 63.1525C121.324 63.2369 121.324 63.2369 123.283 62.3617C124.281 61.3878 125.06 60.283 125.843 59.1328C126.135 58.7604 126.431 58.3915 126.731 58.0261C126.962 57.7295 127.193 57.4325 127.422 57.1349L127.796 56.654C128.153 56.1947 128.509 55.7349 128.865 55.2747L129.482 54.4803C129.918 53.9189 130.353 53.357 130.788 52.7946L130.189 52.5576C129.456 52.2586 128.727 51.9479 128.004 51.6256L127.195 51.2693C126.643 51.0259 126.091 50.7819 125.54 50.5374L124.725 50.1788L123.997 49.857L123.096 49.4877L122.495 49.2149C120.276 48.287 118.225 48.2377 115.85 48.268C115.433 48.2693 115.015 48.2701 114.598 48.2705C113.472 48.2727 112.347 48.2821 111.221 48.2931C110.036 48.3036 108.85 48.3088 107.665 48.3146C105.673 48.3258 103.682 48.3408 101.69 48.3595C99.3997 48.3805 97.1097 48.3934 94.8194 48.4025C92.6032 48.4113 90.3874 48.4265 88.1715 48.4438C87.2347 48.4512 86.2979 48.4565 85.3612 48.4598C76.5914 48.4943 68.0573 49.4199 61.4894 55.8862L60.735 56.6526L60.0578 57.333C54.7459 62.9437 52.8817 70.2075 52.9658 77.7328C53.0688 81.2817 53.9558 84.607 55.5154 87.7924L55.9533 88.6935C56.9807 90.706 58.1716 92.4176 59.6362 94.1305L60.0161 94.6321C61.3342 96.3343 63.1292 97.5603 64.8558 98.8153L65.5865 99.3981C66.7486 100.056 67.5733 100.071 68.8817 100.055L69.5968 100.059C70.3858 100.063 71.1745 100.059 71.9632 100.055C72.5297 100.056 73.0962 100.057 73.6626 100.059C74.8824 100.063 76.1019 100.063 77.3213 100.06C79.2534 100.056 81.1855 100.059 83.1175 100.064C86.8746 100.073 90.6319 100.073 94.3892 100.072C99.1604 100.072 103.932 100.075 108.703 100.086C110.62 100.09 112.536 100.09 114.453 100.087C115.652 100.085 116.85 100.088 118.049 100.09C118.6 100.091 119.152 100.09 119.703 100.088C127.758 100.056 136.633 101.906 142.583 107.823C142.866 108.126 143.146 108.43 143.425 108.736L144.111 109.408C149.273 114.715 152.072 121.621 151.999 129.048C151.856 132.862 151.01 136.397 149.468 139.876L149.24 140.396C148.224 142.676 146.997 144.615 145.348 146.489L144.785 147.174C139.582 153.318 131.914 156.21 124.068 156.903C121.909 157.032 119.745 156.997 117.583 156.993H115.917C114.417 156.992 112.917 156.991 111.417 156.989C109.847 156.987 108.277 156.987 106.706 156.987C103.736 156.986 100.766 156.984 97.7954 156.981C94.4124 156.978 91.0295 156.976 87.6465 156.975C80.6907 156.972 73.7348 156.967 66.7788 156.961C67.8859 154.089 69.9864 151.623 71.7822 149.147C72.8062 147.73 73.7961 146.288 74.7511 144.823C75.5159 143.679 76.3194 142.564 77.1293 141.451C77.6908 140.673 78.1779 139.914 78.5916 139.049L78.0559 139.05C73.7621 139.056 69.4681 139.06 65.1739 139.063C63.0972 139.065 61.0206 139.067 58.9441 139.07C57.1349 139.072 55.3256 139.074 53.5163 139.075C52.5577 139.075 51.5991 139.076 50.6406 139.078C49.5722 139.08 48.5038 139.08 47.4354 139.08L46.4657 139.083L45.5888 139.082L44.8223 139.083C44.252 139.049 44.252 139.049 43.9773 138.773C43.9589 138.355 43.9533 137.935 43.9603 137.516L43.9677 136.826L43.9773 136.293L44.4866 136.292C55.8924 136.274 67.2982 136.25 78.7039 136.219C82.5613 136.21 86.4188 136.202 90.2764 136.197C94.2356 136.191 98.1949 136.182 102.154 136.169C104.597 136.162 107.039 136.158 109.481 136.156C111.157 136.154 112.833 136.15 114.508 136.143C115.474 136.139 116.441 136.136 117.407 136.137C118.456 136.138 119.505 136.133 120.555 136.128L121.473 136.131C124.14 136.107 126.786 135.61 128.865 133.813C130.281 132.095 130.937 130.103 130.873 127.877C130.616 125.828 129.875 124.025 128.332 122.634C126.397 121.285 124.207 120.828 121.889 120.823L120.808 120.818L119.621 120.818L118.36 120.813C117.204 120.81 116.048 120.807 114.892 120.806C113.646 120.803 112.4 120.8 111.153 120.796C108.994 120.79 106.835 120.785 104.676 120.781C101.553 120.774 98.4313 120.767 95.3095 120.759C90.2444 120.746 85.1793 120.734 80.1141 120.722C75.1933 120.712 70.2726 120.7 65.3519 120.688L64.433 120.686L59.8691 120.675C47.2459 120.643 34.6229 120.614 22 120.586V117.83C36.6451 117.794 51.2903 117.769 65.9354 117.754L66.8689 117.753C71.8528 117.747 76.837 117.736 81.8212 117.723C86.9368 117.711 92.0523 117.703 97.1679 117.7C100.323 117.698 103.479 117.692 106.635 117.681C108.8 117.674 110.965 117.671 113.13 117.673C114.379 117.674 115.627 117.673 116.875 117.666C118.02 117.659 119.165 117.658 120.31 117.663C120.722 117.664 121.134 117.662 121.547 117.658C125.08 117.623 128.442 118.316 131.062 120.861C133.229 123.206 134.195 126.117 134.142 129.289C133.914 131.918 132.679 134.553 130.753 136.362C128.624 138.039 126.252 139.095 123.553 139.067C123.195 139.064 122.837 139.061 122.468 139.058L121.883 139.051C121.047 139.042 120.21 139.035 119.373 139.029L118.021 139.017C115.128 138.992 112.235 138.987 109.343 138.981C106.526 138.975 103.711 138.963 100.894 138.931C98.6567 138.905 96.4188 138.894 94.1809 138.898C92.9975 138.9 91.8148 138.896 90.6313 138.874C89.5165 138.854 88.4031 138.852 87.288 138.864C86.8807 138.865 86.4735 138.86 86.0664 138.847C83.8912 138.759 83.8911 138.759 82.0052 139.706C81.0726 140.769 80.386 141.956 79.6905 143.183C79.4124 143.587 79.1276 143.986 78.8361 144.381C77.3099 146.534 75.8189 148.712 74.3637 150.915L73.831 151.718C73.403 152.363 72.9753 153.009 72.5478 153.654C79.3086 153.674 86.0694 153.688 92.8301 153.697C95.9692 153.701 99.1087 153.708 102.249 153.717C104.987 153.725 107.725 153.73 110.463 153.732C111.911 153.733 113.359 153.736 114.807 153.742C116.174 153.747 117.541 153.749 118.907 153.748C119.405 153.748 119.904 153.75 120.402 153.753C124.498 153.778 128.513 153.458 132.367 151.949L133.026 151.697C139.438 149.146 143.971 144.356 146.861 138.161C149.401 132.004 149.358 125.122 146.844 118.968C145.724 116.535 144.305 114.375 142.601 112.318L141.962 111.507C141.245 110.646 140.421 109.957 139.527 109.287L139.049 108.927C133.118 104.509 126.552 103.311 119.303 103.402C118.722 103.405 118.142 103.408 117.561 103.41C116.322 103.415 115.083 103.423 113.844 103.434C111.881 103.45 109.917 103.455 107.954 103.458C102.374 103.469 96.7949 103.488 91.2154 103.531C88.1252 103.555 85.0351 103.566 81.9451 103.565C79.9973 103.565 78.0498 103.579 76.1021 103.603C74.8865 103.615 73.6711 103.614 72.4555 103.608C71.8966 103.608 71.3377 103.614 70.7789 103.625C66.5758 103.71 64.1638 102.688 61.0097 99.9176L60.0276 99.0817C54.0836 93.9087 50.3741 86.2789 49.7464 78.4229C49.2659 70.1447 51.8424 61.9078 57.298 55.6308C65.5269 46.5424 76.0365 45.2337 87.6853 45.1706Z" fill="#B04D33"/>
<path d="M87.6853 45.1706C88.3616 45.1667 89.0378 45.1624 89.7138 45.1576C91.8456 45.1433 93.9771 45.1332 96.1083 45.1273C98.5396 45.1207 100.971 45.1011 103.402 45.0711C105.301 45.0482 107.201 45.0375 109.101 45.0353C110.227 45.0336 111.352 45.0276 112.477 45.0083C118.524 44.9107 123.109 45.6548 128.59 48.3854L129.559 48.8674C131.362 49.7735 133.146 50.709 134.908 51.6923C134.908 53.039 134.434 53.4846 133.587 54.4309C133.308 54.7512 133.029 55.0716 132.751 55.3921L132.315 55.8868C131.648 56.6501 130.994 57.4264 130.341 58.2027L129.962 58.6524C129.16 59.6045 128.365 60.5626 127.577 61.5267L126.972 62.2597C126.58 62.7544 126.205 63.2621 125.847 63.782L125.31 64.5409L124.857 65.2235C123.042 66.657 119.605 66.0541 117.405 66.0403L116.202 66.0364C115.344 66.0337 114.485 66.0302 113.626 66.0259C112.266 66.0196 110.905 66.016 109.545 66.0127C105.678 66.0042 101.811 65.9916 97.9434 65.975C95.8038 65.9652 93.6641 65.9588 91.5244 65.9557C90.175 65.9531 88.8255 65.9476 87.4759 65.9391C86.6331 65.9345 85.79 65.9336 84.9472 65.9336C84.5596 65.9331 84.172 65.931 83.7843 65.9273C80.0322 65.8934 76.9219 66.3553 74.0244 68.8467C71.7503 71.4884 70.507 74.2424 70.5498 77.7554C70.9775 83.1252 74.409 86.1891 78.0249 89.7387C78.6201 90.3259 79.2146 90.9138 79.8086 91.5024C80.1761 91.8665 80.5445 92.2297 80.9138 92.592C81.3344 93.0088 81.7508 93.4298 82.1629 93.855V94.1305C80.6325 94.3675 78.9542 94.6235 77.5383 93.8583C76.329 92.9654 75.3398 91.8474 74.3335 90.7377C74.0253 90.4172 73.7163 90.0976 73.4063 89.779C69.3721 85.569 67.4683 81.4746 67.545 75.649C67.59 74.157 67.7961 72.8929 68.4271 71.5335L68.762 70.7939C70.3309 67.6416 72.5761 65.2047 75.8444 63.8175C78.3891 62.9787 80.8283 62.8874 83.4769 62.9285C83.9027 62.9318 84.3287 62.9348 84.7549 62.9373C85.6653 62.9436 86.5759 62.9517 87.4866 62.9618C88.9289 62.977 90.3712 62.9828 91.8137 62.9866L94.0526 62.9927C97.4061 63.0029 100.759 63.0208 104.112 63.0578C106.381 63.0826 108.65 63.095 110.919 63.0927C112.117 63.0922 113.315 63.0983 114.513 63.1198C115.64 63.1401 116.765 63.1437 117.892 63.1346C118.303 63.1343 118.714 63.1402 119.125 63.1525C121.324 63.2369 121.324 63.2369 123.283 62.3617C124.281 61.3878 125.06 60.283 125.843 59.1328C126.135 58.7604 126.431 58.3915 126.731 58.0261C126.962 57.7295 127.193 57.4325 127.422 57.1349L127.796 56.654C128.153 56.1947 128.509 55.7349 128.865 55.2747L129.482 54.4803C129.918 53.9189 130.353 53.357 130.788 52.7946L130.189 52.5576C129.456 52.2586 128.727 51.9479 128.004 51.6256L127.195 51.2693C126.643 51.0259 126.091 50.7819 125.54 50.5374L124.725 50.1788L123.997 49.857L123.096 49.4877L122.495 49.2149C120.276 48.287 118.225 48.2377 115.85 48.268C115.433 48.2693 115.015 48.2701 114.598 48.2705C113.472 48.2727 112.347 48.2821 111.221 48.2931C110.036 48.3036 108.85 48.3088 107.665 48.3146C105.673 48.3258 103.682 48.3408 101.69 48.3595C99.3997 48.3805 97.1097 48.3934 94.8194 48.4025C92.6032 48.4113 90.3874 48.4265 88.1715 48.4438C87.2347 48.4512 86.2979 48.4565 85.3612 48.4598C76.5914 48.4943 68.0573 49.4199 61.4894 55.8862L60.735 56.6526L60.0578 57.333C54.7459 62.9437 52.8817 70.2075 52.9658 77.7328C53.0688 81.2817 53.9558 84.607 55.5154 87.7924L55.9533 88.6935C56.9807 90.706 58.1716 92.4176 59.6362 94.1305L60.0161 94.6321C61.3342 96.3343 63.1292 97.5603 64.8558 98.8153L65.5865 99.3981C66.7486 100.056 67.5733 100.071 68.8817 100.055L69.5968 100.059C70.3858 100.063 71.1745 100.059 71.9632 100.055C72.5297 100.056 73.0962 100.057 73.6626 100.059C74.8824 100.063 76.1019 100.063 77.3213 100.06C79.2534 100.056 81.1855 100.059 83.1175 100.064C86.8746 100.073 90.6319 100.073 94.3892 100.072C99.1604 100.072 103.932 100.075 108.703 100.086C110.62 100.09 112.536 100.09 114.453 100.087C115.652 100.085 116.85 100.088 118.049 100.09C118.6 100.091 119.152 100.09 119.703 100.088C127.758 100.056 136.633 101.906 142.583 107.823C142.866 108.126 143.146 108.43 143.425 108.736L144.111 109.408C149.273 114.715 152.072 121.621 151.999 129.048C151.856 132.862 151.01 136.397 149.468 139.876L149.24 140.396C148.224 142.676 146.997 144.615 145.348 146.489L144.785 147.174C139.582 153.318 131.914 156.21 124.068 156.903C121.909 157.032 119.745 156.997 117.583 156.993H115.917C114.417 156.992 112.917 156.991 111.417 156.989C109.847 156.987 108.277 156.987 106.706 156.987C103.736 156.986 100.766 156.984 97.7954 156.981C94.4124 156.978 91.0295 156.976 87.6465 156.975C80.6907 156.972 73.7348 156.967 66.7788 156.961C67.8859 154.089 69.9864 151.623 71.7822 149.147C72.8062 147.73 73.7961 146.288 74.7511 144.823C75.5159 143.679 76.3194 142.564 77.1293 141.451C77.6908 140.673 78.1779 139.914 78.5916 139.049L78.0559 139.05C73.7621 139.056 69.4681 139.06 65.1739 139.063C63.0972 139.065 61.0206 139.067 58.9441 139.07C57.1349 139.072 55.3256 139.074 53.5163 139.075C52.5577 139.075 51.5991 139.076 50.6406 139.078C49.5722 139.08 48.5038 139.08 47.4354 139.08L46.4657 139.083L45.5888 139.082L44.8223 139.083C44.252 139.049 44.252 139.049 43.9773 138.773C43.9589 138.355 43.9533 137.935 43.9603 137.516L43.9677 136.826L43.9773 136.293L44.4866 136.292C55.8924 136.274 67.2982 136.25 78.7039 136.219C82.5613 136.21 86.4188 136.202 90.2764 136.197C94.2356 136.191 98.1949 136.182 102.154 136.169C104.597 136.162 107.039 136.158 109.481 136.156C111.157 136.154 112.833 136.15 114.508 136.143C115.474 136.139 116.441 136.136 117.407 136.137C118.456 136.138 119.505 136.133 120.555 136.128L121.473 136.131C124.14 136.107 126.786 135.61 128.865 133.813C130.281 132.095 130.937 130.103 130.873 127.877C130.616 125.828 129.875 124.025 128.332 122.634C126.397 121.285 124.207 120.828 121.889 120.823L120.808 120.818L119.621 120.818L118.36 120.813C117.204 120.81 116.048 120.807 114.892 120.806C113.646 120.803 112.4 120.8 111.153 120.796C108.994 120.79 106.835 120.785 104.676 120.781C101.553 120.774 98.4313 120.767 95.3095 120.759C90.2444 120.746 85.1793 120.734 80.1141 120.722C75.1933 120.712 70.2726 120.7 65.3519 120.688L64.433 120.686L59.8691 120.675C47.2459 120.643 34.6229 120.614 22 120.586V117.83C36.6451 117.794 51.2903 117.769 65.9354 117.754L66.8689 117.753C71.8528 117.747 76.837 117.736 81.8212 117.723C86.9368 117.711 92.0523 117.703 97.1679 117.7C100.323 117.698 103.479 117.692 106.635 117.681C108.8 117.674 110.965 117.671 113.13 117.673C114.379 117.674 115.627 117.673 116.875 117.666C118.02 117.659 119.165 117.658 120.31 117.663C120.722 117.664 121.134 117.662 121.547 117.658C125.08 117.623 128.442 118.316 131.062 120.861C133.229 123.206 134.195 126.117 134.142 129.289C133.914 131.918 132.679 134.553 130.753 136.362C128.624 138.039 126.252 139.095 123.553 139.067C123.195 139.064 122.837 139.061 122.468 139.058L121.883 139.051C121.047 139.042 120.21 139.035 119.373 139.029L118.021 139.017C115.128 138.992 112.235 138.987 109.343 138.981C106.526 138.975 103.711 138.963 100.894 138.931C98.6567 138.905 96.4188 138.894 94.1809 138.898C92.9975 138.9 91.8148 138.896 90.6313 138.874C89.5165 138.854 88.4031 138.852 87.288 138.864C86.8807 138.865 86.4735 138.86 86.0664 138.847C83.8912 138.759 83.8911 138.759 82.0052 139.706C81.0726 140.769 80.386 141.956 79.6905 143.183C79.4124 143.587 79.1276 143.986 78.8361 144.381C77.3099 146.534 75.8189 148.712 74.3637 150.915L73.831 151.718C73.403 152.363 72.9753 153.009 72.5478 153.654C79.3086 153.674 86.0694 153.688 92.8301 153.697C95.9692 153.701 99.1087 153.708 102.249 153.717C104.987 153.725 107.725 153.73 110.463 153.732C111.911 153.733 113.359 153.736 114.807 153.742C116.174 153.747 117.541 153.749 118.907 153.748C119.405 153.748 119.904 153.75 120.402 153.753C124.498 153.778 128.513 153.458 132.367 151.949L133.026 151.697C139.438 149.146 143.971 144.356 146.861 138.161C149.401 132.004 149.358 125.122 146.844 118.968C145.724 116.535 144.305 114.375 142.601 112.318L141.962 111.507C141.245 110.646 140.421 109.957 139.527 109.287L139.049 108.927C133.118 104.509 126.552 103.311 119.303 103.402C118.722 103.405 118.142 103.408 117.561 103.41C116.322 103.415 115.083 103.423 113.844 103.434C111.881 103.45 109.917 103.455 107.954 103.458C102.374 103.469 96.7949 103.488 91.2154 103.531C88.1252 103.555 85.0351 103.566 81.9451 103.565C79.9973 103.565 78.0498 103.579 76.1021 103.603C74.8865 103.615 73.6711 103.614 72.4555 103.608C71.8966 103.608 71.3377 103.614 70.7789 103.625C66.5758 103.71 64.1638 102.688 61.0097 99.9176L60.0276 99.0817C54.0836 93.9087 50.3741 86.2789 49.7464 78.4229C49.2659 70.1447 51.8424 61.9078 57.298 55.6308C65.5269 46.5424 76.0365 45.2337 87.6853 45.1706Z" stroke="#B04D33" stroke-width="4" mask="url(#path-3-outside-2_245_88)"/>
</svg>
